<svg width="492" height="87" viewBox="0 0 492 87" fill="none" xmlns="http://www.w3.org/2000/svg">
<g filter="url(#filter0_d_45_24)">
<rect x="300" y="14" width="172" height="47" rx="12" fill="#706FE5" shape-rendering="crispEdges"/>
<path d="M350.376 40.364C350.376 35.936 343.932 37.34 343.932 34.82C343.932 33.794 344.67 33.308 345.66 33.344C346.74 33.362 347.406 34.01 347.46 34.838H350.232C350.07 32.57 348.306 31.256 345.732 31.256C343.14 31.256 341.304 32.624 341.304 34.892C341.286 39.446 347.766 37.808 347.766 40.526C347.766 41.426 347.064 42.056 345.876 42.056C344.706 42.056 344.04 41.39 343.968 40.382H341.268C341.304 42.758 343.32 44.126 345.93 44.126C348.792 44.126 350.376 42.344 350.376 40.364ZM361.974 34.028H359.436V39.518C359.436 41.12 358.572 41.984 357.204 41.984C355.872 41.984 354.99 41.12 354.99 39.518V34.028H352.47V39.878C352.47 42.614 354.144 44.126 356.466 44.126C357.708 44.126 358.806 43.586 359.436 42.74V44H361.974V34.028ZM366.981 35.486V30.68H364.461V44H366.981V42.578C367.593 43.442 368.709 44.162 370.275 44.162C372.831 44.162 374.829 42.092 374.829 38.978C374.829 35.864 372.831 33.866 370.275 33.866C368.763 33.866 367.593 34.568 366.981 35.486ZM372.255 38.978C372.255 40.868 370.977 41.948 369.609 41.948C368.259 41.948 366.981 40.904 366.981 39.014C366.981 37.124 368.259 36.08 369.609 36.08C370.977 36.08 372.255 37.088 372.255 38.978ZM384.4 41.156C384.328 37.502 378.802 38.636 378.802 36.818C378.802 36.242 379.288 35.864 380.224 35.864C381.214 35.864 381.826 36.386 381.898 37.16H384.31C384.166 35.18 382.708 33.866 380.296 33.866C377.83 33.866 376.354 35.198 376.354 36.854C376.354 40.508 381.988 39.374 381.988 41.156C381.988 41.732 381.448 42.182 380.458 42.182C379.45 42.182 378.748 41.606 378.658 40.85H376.12C376.228 42.704 377.974 44.162 380.476 44.162C382.906 44.162 384.4 42.866 384.4 41.156ZM385.821 39.014C385.821 42.146 387.873 44.162 390.753 44.162C393.237 44.162 394.911 42.758 395.451 40.634H392.733C392.427 41.534 391.779 42.002 390.735 42.002C389.331 42.002 388.395 40.958 388.395 39.014C388.395 37.07 389.331 36.008 390.735 36.008C391.779 36.008 392.445 36.548 392.733 37.394H395.451C394.911 35.162 393.237 33.866 390.753 33.866C387.873 33.866 385.821 35.882 385.821 39.014ZM399.817 39.032C399.817 37.106 400.717 36.53 402.211 36.53H402.877V33.884C401.491 33.884 400.447 34.55 399.817 35.576V34.028H397.297V44H399.817V39.032ZM404.574 44H407.094V34.028H404.574V44ZM405.852 32.84C406.734 32.84 407.4 32.192 407.4 31.364C407.4 30.536 406.734 29.888 405.852 29.888C404.952 29.888 404.304 30.536 404.304 31.364C404.304 32.192 404.952 32.84 405.852 32.84ZM412.104 35.486V30.68H409.584V44H412.104V42.578C412.716 43.442 413.832 44.162 415.398 44.162C417.954 44.162 419.952 42.092 419.952 38.978C419.952 35.864 417.954 33.866 415.398 33.866C413.886 33.866 412.716 34.568 412.104 35.486ZM417.378 38.978C417.378 40.868 416.1 41.948 414.732 41.948C413.382 41.948 412.104 40.904 412.104 39.014C412.104 37.124 413.382 36.08 414.732 36.08C416.1 36.08 417.378 37.088 417.378 38.978ZM426.067 35.936C427.363 35.936 428.407 36.764 428.443 38.078H423.709C423.907 36.71 424.861 35.936 426.067 35.936ZM430.801 40.868H428.083C427.759 41.534 427.165 42.074 426.085 42.074C424.825 42.074 423.817 41.246 423.691 39.77H430.981C431.035 39.446 431.053 39.122 431.053 38.798C431.053 35.828 429.019 33.866 426.139 33.866C423.187 33.866 421.135 35.864 421.135 39.014C421.135 42.146 423.241 44.162 426.139 44.162C428.605 44.162 430.261 42.704 430.801 40.868Z" fill="white"/>
</g>
<g clip-path="url(#clip0_45_24)">
<g clip-path="url(#clip1_45_24)">
<g filter="url(#filter1_d_45_24)">
<rect y="1" width="491" height="72" fill="black" fill-opacity="0.01"/>
</g>
<rect opacity="0.1" y="1" width="491" height="72" fill="#706FE5"/>
<g opacity="0.7">
<path d="M34.6942 41.0319C34.4675 41.1735 34.2125 41.2302 33.9858 41.2302C33.7591 41.2302 33.5041 41.1735 33.2774 41.0319L22 34.1464V43.2987C22 45.2538 23.5868 46.8406 25.5419 46.8406H42.4581C44.4132 46.8406 46 45.2538 46 43.2987V34.1464L34.6942 41.0319Z" fill="#2E3E5C"/>
<path d="M42.458 29.1594H25.5419C23.8701 29.1594 22.4533 30.3495 22.1133 31.9363L34.0141 39.1901L45.8866 31.9363C45.5466 30.3495 44.1298 29.1594 42.458 29.1594Z" fill="#2E3E5C"/>
</g>
</g>
<path opacity="0.7" d="M64.232 31.832H58.232V43H64.232V41.8H59.688V37.96H63.752V36.76H59.688V33.032H64.232V31.832ZM72.8511 43H74.2911V37.832C74.2911 35.32 72.7391 34.072 70.7071 34.072C69.5231 34.072 68.4671 34.568 67.8911 35.48V34.232H66.4351V43H67.8911V38.152C67.8911 36.264 68.9151 35.336 70.4031 35.336C71.8751 35.336 72.8511 36.248 72.8511 38.04V43ZM76.9895 40.6C76.9895 42.36 77.8695 43 79.4215 43H80.7335V41.768H79.6615C78.7655 41.768 78.4455 41.464 78.4455 40.6V35.432H80.7335V34.232H78.4455V32.024H76.9895V34.232H75.8535V35.432H76.9895V40.6ZM86.2256 35.32C87.7296 35.32 89.0096 36.264 88.9936 37.976H83.4576C83.6176 36.264 84.8016 35.32 86.2256 35.32ZM90.3216 40.296H88.7536C88.4336 41.24 87.6016 41.912 86.2896 41.912C84.8016 41.912 83.5536 40.936 83.4416 39.16H90.4496C90.4816 38.856 90.4976 38.6 90.4976 38.28C90.4976 35.88 88.8336 34.088 86.2896 34.088C83.7296 34.088 81.9536 35.832 81.9536 38.6C81.9536 41.384 83.7936 43.144 86.2896 43.144C88.4656 43.144 89.8736 41.896 90.3216 40.296ZM93.8755 38.232C93.8755 36.2 94.9315 35.576 96.3235 35.576H96.7075V34.072C95.3155 34.072 94.3715 34.68 93.8755 35.656V34.232H92.4195V43H93.8755V38.232ZM105.982 41.336L103.23 34.232H101.614L105.15 42.904L103.422 47.128H104.926L110.206 34.232H108.702L105.982 41.336ZM119.99 38.6C119.99 35.832 118.054 34.088 115.558 34.088C113.078 34.088 111.126 35.832 111.126 38.6C111.126 41.384 113.014 43.144 115.494 43.144C117.99 43.144 119.99 41.384 119.99 38.6ZM112.614 38.6C112.614 36.392 114.006 35.352 115.542 35.352C117.046 35.352 118.502 36.392 118.502 38.6C118.502 40.824 117.014 41.864 115.494 41.864C113.974 41.864 112.614 40.824 112.614 38.6ZM129.68 34.232H128.224V39.048C128.224 40.936 127.216 41.864 125.712 41.864C124.24 41.864 123.264 40.952 123.264 39.176V34.232H121.824V39.368C121.824 41.88 123.408 43.128 125.424 43.128C126.592 43.128 127.664 42.616 128.224 41.704V43H129.68V34.232ZM133.594 38.232C133.594 36.2 134.65 35.576 136.042 35.576H136.426V34.072C135.034 34.072 134.09 34.68 133.594 35.656V34.232H132.138V43H133.594V38.232ZM146.101 35.32C147.605 35.32 148.885 36.264 148.869 37.976H143.333C143.493 36.264 144.677 35.32 146.101 35.32ZM150.197 40.296H148.629C148.309 41.24 147.477 41.912 146.165 41.912C144.677 41.912 143.429 40.936 143.317 39.16H150.325C150.357 38.856 150.373 38.6 150.373 38.28C150.373 35.88 148.709 34.088 146.165 34.088C143.605 34.088 141.829 35.832 141.829 38.6C141.829 41.384 143.669 43.144 146.165 43.144C148.341 43.144 149.749 41.896 150.197 40.296ZM164.951 43H166.391V37.832C166.391 35.32 164.839 34.072 162.839 34.072C161.495 34.072 160.247 34.76 159.735 36.024C159.159 34.712 157.959 34.072 156.519 34.072C155.367 34.072 154.327 34.568 153.751 35.496V34.232H152.295V43H153.751V38.168C153.751 36.28 154.759 35.336 156.231 35.336C157.671 35.336 158.631 36.248 158.631 38.04V43H160.071V38.168C160.071 36.28 161.079 35.336 162.551 35.336C163.991 35.336 164.951 36.248 164.951 38.04V43ZM168.235 38.584C168.235 41.304 170.043 43.144 172.379 43.144C173.995 43.144 175.131 42.312 175.659 41.368V43H177.131V34.232H175.659V35.832C175.147 34.92 174.027 34.088 172.395 34.088C170.043 34.088 168.235 35.848 168.235 38.584ZM175.659 38.6C175.659 40.664 174.283 41.864 172.683 41.864C171.083 41.864 169.723 40.648 169.723 38.584C169.723 36.52 171.083 35.352 172.683 35.352C174.283 35.352 175.659 36.568 175.659 38.6ZM179.591 43H181.047V34.232H179.591V43ZM180.343 32.808C180.871 32.808 181.303 32.376 181.303 31.816C181.303 31.256 180.871 30.824 180.343 30.824C179.783 30.824 179.351 31.256 179.351 31.816C179.351 32.376 179.783 32.808 180.343 32.808ZM183.529 43H184.985V31.16H183.529V43ZM191.188 38.584C191.188 41.304 192.996 43.144 195.332 43.144C196.948 43.144 198.084 42.312 198.612 41.368V43H200.084V34.232H198.612V35.832C198.1 34.92 196.98 34.088 195.348 34.088C192.996 34.088 191.188 35.848 191.188 38.584ZM198.612 38.6C198.612 40.664 197.236 41.864 195.636 41.864C194.036 41.864 192.676 40.648 192.676 38.584C192.676 36.52 194.036 35.352 195.636 35.352C197.236 35.352 198.612 36.568 198.612 38.6ZM202.001 38.584C202.001 41.304 203.809 43.144 206.161 43.144C207.761 43.144 208.897 42.328 209.425 41.352V43H210.897V31.16H209.425V35.8C208.817 34.792 207.553 34.088 206.177 34.088C203.809 34.088 202.001 35.848 202.001 38.584ZM209.425 38.6C209.425 40.664 208.049 41.864 206.449 41.864C204.849 41.864 203.489 40.648 203.489 38.584C203.489 36.52 204.849 35.352 206.449 35.352C208.049 35.352 209.425 36.568 209.425 38.6ZM212.813 38.584C212.813 41.304 214.621 43.144 216.973 43.144C218.573 43.144 219.709 42.328 220.237 41.352V43H221.709V31.16H220.237V35.8C219.629 34.792 218.365 34.088 216.989 34.088C214.621 34.088 212.813 35.848 212.813 38.584ZM220.237 38.6C220.237 40.664 218.861 41.864 217.261 41.864C215.661 41.864 214.301 40.648 214.301 38.584C214.301 36.52 215.661 35.352 217.261 35.352C218.861 35.352 220.237 36.568 220.237 38.6ZM225.626 38.232C225.626 36.2 226.682 35.576 228.074 35.576H228.458V34.072C227.066 34.072 226.122 34.68 225.626 35.656V34.232H224.17V43H225.626V38.232ZM233.866 35.32C235.37 35.32 236.65 36.264 236.634 37.976H231.098C231.258 36.264 232.442 35.32 233.866 35.32ZM237.962 40.296H236.394C236.074 41.24 235.242 41.912 233.93 41.912C232.442 41.912 231.194 40.936 231.082 39.16H238.09C238.122 38.856 238.138 38.6 238.138 38.28C238.138 35.88 236.474 34.088 233.93 34.088C231.37 34.088 229.594 35.832 229.594 38.6C229.594 41.384 231.434 43.144 233.93 43.144C236.106 43.144 237.514 41.896 237.962 40.296ZM246.364 40.616C246.3 37.48 241.212 38.616 241.212 36.536C241.212 35.832 241.852 35.32 242.924 35.32C244.092 35.32 244.764 35.96 244.828 36.84H246.284C246.188 35.128 244.908 34.088 242.972 34.088C241.02 34.088 239.756 35.192 239.756 36.536C239.756 39.8 244.94 38.664 244.94 40.616C244.94 41.336 244.3 41.912 243.148 41.912C241.916 41.912 241.164 41.272 241.084 40.424H239.58C239.676 42.024 241.116 43.144 243.164 43.144C245.1 43.144 246.364 42.056 246.364 40.616ZM254.724 40.616C254.66 37.48 249.572 38.616 249.572 36.536C249.572 35.832 250.212 35.32 251.284 35.32C252.452 35.32 253.124 35.96 253.188 36.84H254.644C254.548 35.128 253.268 34.088 251.332 34.088C249.38 34.088 248.116 35.192 248.116 36.536C248.116 39.8 253.3 38.664 253.3 40.616C253.3 41.336 252.66 41.912 251.508 41.912C250.276 41.912 249.524 41.272 249.444 40.424H247.94C248.036 42.024 249.476 43.144 251.524 43.144C253.46 43.144 254.724 42.056 254.724 40.616Z" fill="#2E3E5C"/>
</g>
<defs>
<filter id="filter0_d_45_24" x="280" y="0" width="212" height="87" filterUnits="userSpaceOnUse" color-interpolation-filters="sRGB">
<feFlood flood-opacity="0" result="BackgroundImageFix"/>
<feColorMatrix in="SourceAlpha" type="matrix" values="0 0 0 0 0 0 0 0 0 0 0 0 0 0 0 0 0 0 127 0" result="hardAlpha"/>
<feOffset dy="6"/>
<feGaussianBlur stdDeviation="10"/>
<feComposite in2="hardAlpha" operator="out"/>
<feColorMatrix type="matrix" values="0 0 0 0 0.439216 0 0 0 0 0.435294 0 0 0 0 0.898039 0 0 0 0.5 0"/>
<feBlend mode="normal" in2="BackgroundImageFix" result="effect1_dropShadow_45_24"/>
<feBlend mode="normal" in="SourceGraphic" in2="effect1_dropShadow_45_24" result="shape"/>
</filter>
<filter id="filter1_d_45_24" x="-40" y="-13" width="571" height="152" filterUnits="userSpaceOnUse" color-interpolation-filters="sRGB">
<feFlood flood-opacity="0" result="BackgroundImageFix"/>
<feColorMatrix in="SourceAlpha" type="matrix" values="0 0 0 0 0 0 0 0 0 0 0 0 0 0 0 0 0 0 127 0" result="hardAlpha"/>
<feOffset dy="26"/>
<feGaussianBlur stdDeviation="20"/>
<feColorMatrix type="matrix" values="0 0 0 0 0 0 0 0 0 0 0 0 0 0 0 0 0 0 0.06 0"/>
<feBlend mode="normal" in2="BackgroundImageFix" result="effect1_dropShadow_45_24"/>
<feBlend mode="normal" in="SourceGraphic" in2="effect1_dropShadow_45_24" result="shape"/>
</filter>
<clipPath id="clip0_45_24">
<rect y="1" width="491" height="72" rx="12" fill="white"/>
</clipPath>
<clipPath id="clip1_45_24">
<rect width="491" height="72" fill="white" transform="translate(0 1)"/>
</clipPath>
</defs>
</svg>
