<svg width="207" height="49" viewBox="0 0 207 49" fill="none" xmlns="http://www.w3.org/2000/svg">
<path d="M64.488 19.016L66.104 19L68.792 10.024L71.384 19H73.016L76.248 7.848H74.68L72.232 17.272L69.672 7.848H68.04L65.352 17.304L62.92 7.848H61.368L64.488 19.016ZM77.2974 14.584C77.2974 17.304 79.1054 19.144 81.4414 19.144C83.0574 19.144 84.1934 18.312 84.7214 17.368V19H86.1934V10.232H84.7214V11.832C84.2094 10.92 83.0894 10.088 81.4574 10.088C79.1054 10.088 77.2974 11.848 77.2974 14.584ZM84.7214 14.6C84.7214 16.664 83.3454 17.864 81.7454 17.864C80.1454 17.864 78.7854 16.648 78.7854 14.584C78.7854 12.52 80.1454 11.352 81.7454 11.352C83.3454 11.352 84.7214 12.568 84.7214 14.6ZM88.9739 16.6C88.9739 18.36 89.8539 19 91.4059 19H92.7179V17.768H91.6459C90.7499 17.768 90.4299 17.464 90.4299 16.6V11.432H92.7179V10.232H90.4299V8.024H88.9739V10.232H87.8379V11.432H88.9739V16.6ZM93.938 14.6C93.938 17.384 95.714 19.144 98.21 19.144C100.386 19.144 101.81 17.928 102.258 16.184H100.69C100.37 17.288 99.506 17.912 98.21 17.912C96.61 17.912 95.426 16.776 95.426 14.6C95.426 12.456 96.61 11.32 98.21 11.32C99.506 11.32 100.386 11.992 100.69 13.048H102.258C101.81 11.208 100.386 10.088 98.21 10.088C95.714 10.088 93.938 11.848 93.938 14.6ZM104.201 19H105.657V14.152C105.657 12.264 106.681 11.336 108.169 11.336C109.641 11.336 110.617 12.248 110.617 14.04V19H112.057V13.832C112.057 11.32 110.505 10.072 108.553 10.072C107.321 10.072 106.233 10.568 105.657 11.496V7.16H104.201V19ZM127.021 14.6C127.021 11.832 125.085 10.088 122.589 10.088C120.109 10.088 118.157 11.832 118.157 14.6C118.157 17.384 120.045 19.144 122.525 19.144C125.021 19.144 127.021 17.384 127.021 14.6ZM119.645 14.6C119.645 12.392 121.037 11.352 122.573 11.352C124.077 11.352 125.533 12.392 125.533 14.6C125.533 16.824 124.045 17.864 122.525 17.864C121.005 17.864 119.645 16.824 119.645 14.6ZM136.711 10.232H135.255V15.048C135.255 16.936 134.247 17.864 132.743 17.864C131.271 17.864 130.295 16.952 130.295 15.176V10.232H128.855V15.368C128.855 17.88 130.439 19.128 132.455 19.128C133.623 19.128 134.695 18.616 135.255 17.704V19H136.711V10.232ZM140.626 14.232C140.626 12.2 141.682 11.576 143.074 11.576H143.458V10.072C142.066 10.072 141.122 10.68 140.626 11.656V10.232H139.17V19H140.626V14.232ZM62.232 43H63.688V34.232H62.232V43ZM62.984 32.808C63.512 32.808 63.944 32.376 63.944 31.816C63.944 31.256 63.512 30.824 62.984 30.824C62.424 30.824 61.992 31.256 61.992 31.816C61.992 32.376 62.424 32.808 62.984 32.808ZM72.5855 43H74.0255V37.832C74.0255 35.32 72.4735 34.072 70.4415 34.072C69.2575 34.072 68.2015 34.568 67.6255 35.48V34.232H66.1695V43H67.6255V38.152C67.6255 36.264 68.6495 35.336 70.1375 35.336C71.6095 35.336 72.5855 36.248 72.5855 38.04V43ZM76.7239 40.6C76.7239 42.36 77.6039 43 79.1559 43H80.4679V41.768H79.3959C78.4999 41.768 78.1799 41.464 78.1799 40.6V35.432H80.4679V34.232H78.1799V32.024H76.7239V34.232H75.5879V35.432H76.7239V40.6ZM83.688 38.232C83.688 36.2 84.744 35.576 86.136 35.576H86.52V34.072C85.128 34.072 84.184 34.68 83.688 35.656V34.232H82.232V43H83.688V38.232ZM96.5208 38.6C96.5208 35.832 94.5848 34.088 92.0888 34.088C89.6088 34.088 87.6568 35.832 87.6568 38.6C87.6568 41.384 89.5448 43.144 92.0248 43.144C94.5208 43.144 96.5208 41.384 96.5208 38.6ZM89.1448 38.6C89.1448 36.392 90.5368 35.352 92.0728 35.352C93.5768 35.352 95.0328 36.392 95.0328 38.6C95.0328 40.824 93.5448 41.864 92.0248 41.864C90.5048 41.864 89.1448 40.824 89.1448 38.6ZM97.8911 38.584C97.8911 41.304 99.6991 43.144 102.051 43.144C103.651 43.144 104.787 42.328 105.315 41.352V43H106.787V31.16H105.315V35.8C104.707 34.792 103.443 34.088 102.067 34.088C99.6991 34.088 97.8911 35.848 97.8911 38.584ZM105.315 38.6C105.315 40.664 103.939 41.864 102.339 41.864C100.739 41.864 99.3791 40.648 99.3791 38.584C99.3791 36.52 100.739 35.352 102.339 35.352C103.939 35.352 105.315 36.568 105.315 38.6ZM117.024 34.232H115.568V39.048C115.568 40.936 114.56 41.864 113.056 41.864C111.584 41.864 110.608 40.952 110.608 39.176V34.232H109.168V39.368C109.168 41.88 110.752 43.128 112.768 43.128C113.936 43.128 115.008 42.616 115.568 41.704V43H117.024V34.232ZM118.938 38.6C118.938 41.384 120.714 43.144 123.21 43.144C125.386 43.144 126.81 41.928 127.258 40.184H125.69C125.37 41.288 124.506 41.912 123.21 41.912C121.61 41.912 120.426 40.776 120.426 38.6C120.426 36.456 121.61 35.32 123.21 35.32C124.506 35.32 125.386 35.992 125.69 37.048H127.258C126.81 35.208 125.386 34.088 123.21 34.088C120.714 34.088 118.938 35.848 118.938 38.6ZM129.521 40.6C129.521 42.36 130.401 43 131.953 43H133.265V41.768H132.193C131.297 41.768 130.977 41.464 130.977 40.6V35.432H133.265V34.232H130.977V32.024H129.521V34.232H128.385V35.432H129.521V40.6ZM135.029 43H136.485V34.232H135.029V43ZM135.781 32.808C136.309 32.808 136.741 32.376 136.741 31.816C136.741 31.256 136.309 30.824 135.781 30.824C135.221 30.824 134.789 31.256 134.789 31.816C134.789 32.376 135.221 32.808 135.781 32.808ZM147.286 38.6C147.286 35.832 145.35 34.088 142.854 34.088C140.374 34.088 138.422 35.832 138.422 38.6C138.422 41.384 140.31 43.144 142.79 43.144C145.286 43.144 147.286 41.384 147.286 38.6ZM139.91 38.6C139.91 36.392 141.302 35.352 142.838 35.352C144.342 35.352 145.798 36.392 145.798 38.6C145.798 40.824 144.31 41.864 142.79 41.864C141.27 41.864 139.91 40.824 139.91 38.6ZM155.617 43H157.057V37.832C157.057 35.32 155.505 34.072 153.473 34.072C152.289 34.072 151.233 34.568 150.657 35.48V34.232H149.201V43H150.657V38.152C150.657 36.264 151.681 35.336 153.169 35.336C154.641 35.336 155.617 36.248 155.617 38.04V43ZM162.661 34.232L166.101 43H167.797L171.237 34.232H169.685L166.965 41.656L164.229 34.232H162.661ZM172.67 43H174.126V34.232H172.67V43ZM173.422 32.808C173.95 32.808 174.382 32.376 174.382 31.816C174.382 31.256 173.95 30.824 173.422 30.824C172.862 30.824 172.43 31.256 172.43 31.816C172.43 32.376 172.862 32.808 173.422 32.808ZM176.063 38.584C176.063 41.304 177.871 43.144 180.223 43.144C181.823 43.144 182.959 42.328 183.487 41.352V43H184.959V31.16H183.487V35.8C182.879 34.792 181.615 34.088 180.239 34.088C177.871 34.088 176.063 35.848 176.063 38.584ZM183.487 38.6C183.487 40.664 182.111 41.864 180.511 41.864C178.911 41.864 177.551 40.648 177.551 38.584C177.551 36.52 178.911 35.352 180.511 35.352C182.111 35.352 183.487 36.568 183.487 38.6ZM191.148 35.32C192.652 35.32 193.932 36.264 193.916 37.976H188.38C188.539 36.264 189.724 35.32 191.148 35.32ZM195.244 40.296H193.676C193.356 41.24 192.524 41.912 191.212 41.912C189.724 41.912 188.476 40.936 188.364 39.16H195.372C195.404 38.856 195.42 38.6 195.42 38.28C195.42 35.88 193.756 34.088 191.212 34.088C188.652 34.088 186.876 35.832 186.876 38.6C186.876 41.384 188.716 43.144 191.212 43.144C193.388 43.144 194.796 41.896 195.244 40.296ZM205.661 38.6C205.661 35.832 203.725 34.088 201.229 34.088C198.749 34.088 196.797 35.832 196.797 38.6C196.797 41.384 198.685 43.144 201.165 43.144C203.661 43.144 205.661 41.384 205.661 38.6ZM198.285 38.6C198.285 36.392 199.677 35.352 201.213 35.352C202.717 35.352 204.173 36.392 204.173 38.6C204.173 40.824 202.685 41.864 201.165 41.864C199.645 41.864 198.285 40.824 198.285 38.6Z" fill="#2E3E5C"/>
<path opacity="0.15" d="M0 24C0 10.7452 10.7452 0 24 0C37.2548 0 48 10.7452 48 24C48 37.2548 37.2548 48 24 48C10.7452 48 0 37.2548 0 24Z" fill="#706FE5"/>
<path fill-rule="evenodd" clip-rule="evenodd" d="M29.9735 23.0916C30.6766 23.4981 30.6744 24.5 29.9735 24.9065L22.1161 29.4766C21.4085 29.8897 20.5 29.3931 20.5 28.5692V19.4268C20.5 18.5083 21.4777 18.148 22.1161 18.5193L29.9735 23.0916Z" fill="#706FE5"/>
</svg>
